# xmcd CD database file generated by OrangeCD 5.2
#
# Track frame offsets:
#	150
#	20415
#	33169
#	50458
#	71074
#	87958
#	106409
#	122558
#	139818
#	157966
#	169901
#	188335
#	210938
#	229346
#	251712
#	272148
#	288591
#	305679
#	321999
#
# Disc length: 4519 seconds
#
# Revision: 0
# Processed by: cddbd v1.5.2PL0 Copyright (c) Steve Scherf et al.
# Submitted via: OrangeCD 5.2
#
DISCID=0e11a513
DTITLE=Various Artist - Rockin' Rhythm and Blues
DYEAR=2006
DGENRE=Dance R&B
TTITLE0=Rod Stewart - Hot Legs
TTITLE1=Four Tops - I Can't Help My Self (Sugar Pie Honey Bunch)
TTITLE2=Inner Circle - Sweat (A La La La La Song)
TTITLE3=Sade - Hang On To Your Love
TTITLE4=Michael Jackson - Rock With You
TTITLE5=Barry White - Can't Get Enough Of Your Love
TTITLE6=The Pointer Sisters - Fire
TTITLE7=The Village People - Y.M.C.A.
TTITLE8=Patti LaBelle - Lady Marmalade
TTITLE9=The Temptations - Ain't Too Proud To Beg
TTITLE10=Diana Ross - Upside Down
TTITLE11=George Thorogood and The Destroyers - Bad To The Bone
TTITLE12=Simply Red - Something Got Me Started
TTITLE13=Michael Jackson - Billie Jean
TTITLE14=War - The Cisco Kid
TTITLE15=The Trammps - Disco Inferno
TTITLE16=The Reflections - Three Steps From True Love
TTITLE17=Bonnie Pointer - Heaven Must Of Sent You (Into My Life) MOTOWN
TTITLE18=A Taste Of Honey - Boogie Oogie Oogie
EXTD=
EXTT0=
EXTT1=
EXTT2=
EXTT3=
EXTT4=
EXTT5=
EXTT6=
EXTT7=
EXTT8=
EXTT9=
EXTT10=
EXTT11=
EXTT12=
EXTT13=
EXTT14=
EXTT15=
EXTT16=
EXTT17=
EXTT18=
PLAYORDER=
